<svg data-v-fde0c5aa="" xmlns="http://www.w3.org/2000/svg" viewBox="0 0 300 300" class="font"><!----><defs data-v-fde0c5aa=""><linearGradient data-v-fde0c5aa="" gradientTransform="rotate(25)" id="7fa0b9ee-5628-4a73-86bd-2f7913a7664f" x1="0%" y1="0%" x2="100%" y2="0%"><stop data-v-fde0c5aa="" offset="0%" stop-color="#EB4C00" stop-opacity="1"></stop><stop data-v-fde0c5aa="" offset="100%" stop-color="#F2A900" stop-opacity="1"></stop></linearGradient></defs><rect data-v-fde0c5aa="" fill="url(#7fa0b9ee-5628-4a73-86bd-2f7913a7664f)" x="0" y="0" width="300px" height="300px" class="logo-background-square"></rect><defs data-v-fde0c5aa=""><!----></defs><g data-v-fde0c5aa="" id="822e7156-58da-4882-bf05-fa67d4915cf7" fill="#ffffff" transform="matrix(1.862392243063558,0,0,1.862392243063558,38.43559045366256,139.63578717179158)"><path d="M3.77 1.83L4.03 0.42L2.77 0.42L2.51 1.83ZM2.10 10.50L3.49 3.22L2.23 3.22L0.84 10.50ZM5.15 10.50L5.89 6.54C6.20 4.94 7.17 4.07 8.32 4.07C9.41 4.07 9.66 4.83 9.42 6.09L8.58 10.50L9.84 10.50L10.70 6.03C11.02 4.30 10.78 3.01 8.76 3.01C7.76 3.01 6.92 3.37 6.22 4.27L6.41 3.22L5.28 3.22L3.89 10.50ZM17.91 8.29L16.76 8.04C16.30 9.13 15.36 9.66 14.50 9.66C13.45 9.66 12.60 8.93 12.84 7.18L15.36 7.18C16.86 7.18 18.23 6.72 18.24 5.05C18.24 4.17 17.51 3.01 15.71 3.01C13.69 3.01 12.11 4.45 11.63 6.86C11.17 9.27 12.21 10.71 14.22 10.71C15.81 10.71 17.16 9.91 17.91 8.29ZM15.51 4.06C16.31 4.06 17.05 4.41 17.02 5.10C17.00 5.92 16.44 6.17 15.54 6.17L13.06 6.17C13.58 4.69 14.64 4.06 15.51 4.06ZM25.05 8.29L23.90 8.04C23.44 9.13 22.50 9.66 21.64 9.66C20.59 9.66 19.74 8.93 19.98 7.18L22.50 7.18C24.00 7.18 25.37 6.72 25.38 5.05C25.38 4.17 24.65 3.01 22.85 3.01C20.83 3.01 19.25 4.45 18.77 6.86C18.31 9.27 19.35 10.71 21.36 10.71C22.95 10.71 24.30 9.91 25.05 8.29ZM22.65 4.06C23.45 4.06 24.19 4.41 24.16 5.10C24.14 5.92 23.58 6.17 22.68 6.17L20.20 6.17C20.72 4.69 21.78 4.06 22.65 4.06ZM32.21 0.42L31.53 3.99C31.22 3.40 30.66 3.01 29.79 3.01C27.78 3.01 26.36 4.59 25.93 6.86C25.49 9.13 26.29 10.71 28.31 10.71C29.27 10.71 30.04 10.21 30.59 9.51L30.42 10.50L31.54 10.50L33.47 0.42ZM31.12 6.86C30.76 8.71 29.55 9.66 28.59 9.66C27.48 9.66 26.82 8.71 27.19 6.86C27.55 5.01 28.56 4.06 29.67 4.06C30.77 4.06 31.49 5.01 31.12 6.86ZM34.59 10.50L35.31 6.73C35.56 5.40 36.12 4.07 37.62 4.07C38.47 4.07 38.78 4.69 38.57 5.78L37.67 10.50L38.93 10.50L39.73 6.29C39.96 5.10 40.67 4.07 41.94 4.07C43.02 4.07 43.05 4.96 42.87 5.92L42 10.50L43.26 10.50L44.20 5.52C44.52 3.89 43.90 3.01 42.41 3.01C41.50 3.01 40.56 3.39 39.90 4.35C39.77 3.50 39.16 3.01 38.09 3.01C37.13 3.01 36.33 3.36 35.66 4.26L35.85 3.22L34.72 3.22L33.33 10.50ZM45.09 6.86C44.63 9.27 45.74 10.71 47.75 10.71C49.77 10.71 51.44 9.27 51.90 6.86C52.37 4.45 51.25 3.01 49.24 3.01C47.22 3.01 45.57 4.45 45.09 6.86ZM46.35 6.86C46.75 4.87 47.94 4.06 49.04 4.06C50.15 4.06 51.03 4.87 50.64 6.86C50.26 8.85 49.07 9.66 47.96 9.66C46.86 9.66 45.98 8.85 46.35 6.86ZM53.69 10.50L54.43 6.57C54.70 5.15 55.50 4.20 56.70 4.20C57.13 4.20 57.36 4.31 57.60 4.51L58.20 3.40C57.90 3.14 57.54 3.01 56.98 3.01C56.07 3.01 55.36 3.50 54.71 4.48L54.95 3.22L53.82 3.22L52.43 10.50ZM64.16 8.29L63.01 8.04C62.55 9.13 61.61 9.66 60.76 9.66C59.71 9.66 58.86 8.93 59.09 7.18L61.61 7.18C63.11 7.18 64.48 6.72 64.50 5.05C64.50 4.17 63.77 3.01 61.96 3.01C59.95 3.01 58.37 4.45 57.89 6.86C57.43 9.27 58.46 10.71 60.48 10.71C62.06 10.71 63.42 9.91 64.16 8.29ZM61.77 4.06C62.57 4.06 63.31 4.41 63.28 5.10C63.25 5.92 62.69 6.17 61.80 6.17L59.32 6.17C59.84 4.69 60.90 4.06 61.77 4.06ZM66.33 10.50L66.58 9.10L65.31 9.10L65.06 10.50ZM74.56 0.42L73.88 3.99C73.57 3.40 73.01 3.01 72.14 3.01C70.13 3.01 68.71 4.59 68.28 6.86C67.84 9.13 68.64 10.71 70.66 10.71C71.62 10.71 72.39 10.21 72.94 9.51L72.77 10.50L73.89 10.50L75.82 0.42ZM73.47 6.86C73.11 8.71 71.90 9.66 70.94 9.66C69.83 9.66 69.17 8.71 69.54 6.86C69.90 5.01 70.91 4.06 72.02 4.06C73.12 4.06 73.84 5.01 73.47 6.86ZM75.80 6.86C75.33 9.27 76.44 10.71 78.46 10.71C80.47 10.71 82.14 9.27 82.60 6.86C83.08 4.45 81.96 3.01 79.94 3.01C77.92 3.01 76.27 4.45 75.80 6.86ZM77.06 6.86C77.45 4.87 78.64 4.06 79.74 4.06C80.85 4.06 81.73 4.87 81.34 6.86C80.96 8.85 79.77 9.66 78.67 9.66C77.56 9.66 76.68 8.85 77.06 6.86ZM84.39 10.50L85.11 6.73C85.36 5.40 85.92 4.07 87.42 4.07C88.27 4.07 88.58 4.69 88.37 5.78L87.47 10.50L88.73 10.50L89.53 6.29C89.75 5.10 90.47 4.07 91.74 4.07C92.82 4.07 92.85 4.96 92.67 5.92L91.80 10.50L93.06 10.50L94.00 5.52C94.32 3.89 93.70 3.01 92.20 3.01C91.29 3.01 90.36 3.39 89.70 4.35C89.57 3.50 88.96 3.01 87.89 3.01C86.93 3.01 86.13 3.36 85.46 4.26L85.65 3.22L84.52 3.22L83.13 10.50ZM99.29 9.60C99.26 9.95 99.23 10.30 99.43 10.50L100.70 10.50C100.49 10.23 100.44 9.76 100.59 9.02L101.21 5.82C101.56 3.99 100.87 3.01 98.92 3.01C97.52 3.01 96.12 3.53 95.44 5.21L96.59 5.47C97.01 4.52 97.69 4.02 98.60 4.02C99.57 4.02 100.21 4.44 99.99 5.57L99.93 5.85C99.54 6.02 98.66 6.16 97.87 6.23C96.22 6.38 94.86 7.01 94.56 8.58C94.28 10.07 95.28 10.71 96.63 10.71C97.50 10.71 98.41 10.42 99.29 9.60ZM99.41 8.54C98.94 9.03 97.94 9.70 97.01 9.70C96.33 9.70 95.72 9.45 95.89 8.53C96.08 7.53 97.02 7.36 97.82 7.24C98.55 7.13 99.39 6.97 99.75 6.82ZM104.93 1.83L105.20 0.42L103.94 0.42L103.67 1.83ZM103.26 10.50L104.65 3.22L103.39 3.22L102.00 10.50ZM106.32 10.50L107.06 6.54C107.37 4.94 108.33 4.07 109.48 4.07C110.57 4.07 110.82 4.83 110.59 6.09L109.75 10.50L111.01 10.50L111.86 6.03C112.18 4.30 111.94 3.01 109.93 3.01C108.92 3.01 108.08 3.37 107.38 4.27L107.58 3.22L106.44 3.22L105.06 10.50ZM112.71 8.40C112.55 9.87 113.47 10.71 115.25 10.71C116.70 10.71 118.30 10.11 118.61 8.50C118.87 7.14 118.09 6.65 117.22 6.40L115.37 5.87C114.95 5.75 114.53 5.52 114.65 5.03C114.76 4.44 115.50 4.06 116.41 4.06C117.35 4.06 117.80 4.42 117.75 5.22L118.92 5.22C119.18 3.98 118.37 3.01 116.63 3.01C115.14 3.01 113.71 3.64 113.40 5.17C113.18 6.37 113.95 6.82 114.86 7.08L116.54 7.56C117.25 7.76 117.45 8.05 117.33 8.61C117.18 9.42 116.21 9.66 115.50 9.66C114.30 9.66 113.93 8.99 113.97 8.22L112.71 8.40Z"></path></g><!----><!----></svg>