<svg width="210" height="22" viewBox="0 0 210 22" fill="none" xmlns="http://www.w3.org/2000/svg">
    <g clip-path="url(#clip0)">
        <path d="M46.6116 5.6763L46.9804 3.66658H45.1933L44.8245 5.6763H46.6116ZM44.243 18.0339L46.2145 7.65751H44.4274L42.4559 18.0339H44.243ZM48.5689 18.0339L49.6185 12.3896C50.0582 10.1091 51.434 8.86904 53.065 8.86904C54.611 8.86904 54.9656 9.95229 54.6252 11.7482L53.4338 18.0339H55.2209L56.4407 11.6627C56.8945 9.19687 56.5541 7.35819 53.6891 7.35819C52.2708 7.35819 51.0794 7.87131 50.0865 9.15411L50.356 7.65751H48.7533L46.7818 18.0339H48.5689ZM66.6668 14.8839L65.0357 14.5276C64.3833 16.0812 63.0501 16.8366 61.8303 16.8366C60.3411 16.8366 59.1355 15.7962 59.4759 13.3018H63.0501C65.1776 13.3018 67.1207 12.6462 67.1349 10.2659C67.1349 9.01158 66.0995 7.35819 63.5465 7.35819C60.6815 7.35819 58.4405 9.41067 57.7597 12.8457C57.1073 16.2808 58.5823 18.3332 61.4332 18.3332C63.6883 18.3332 65.6031 17.193 66.6668 14.8839ZM63.2628 8.85479C64.3975 8.85479 65.4471 9.35365 65.4045 10.3371C65.3761 11.5059 64.5819 11.8622 63.3054 11.8622H59.7879C60.5255 9.75275 62.0289 8.85479 63.2628 8.85479ZM76.7937 14.8839L75.1626 14.5276C74.5102 16.0812 73.177 16.8366 71.9572 16.8366C70.468 16.8366 69.2624 15.7962 69.6028 13.3018H73.177C75.3045 13.3018 77.2476 12.6462 77.2618 10.2659C77.2618 9.01158 76.2264 7.35819 73.6734 7.35819C70.8084 7.35819 68.5674 9.41067 67.8866 12.8457C67.2342 16.2808 68.7092 18.3332 71.5601 18.3332C73.8152 18.3332 75.73 17.193 76.7937 14.8839ZM73.3897 8.85479C74.5244 8.85479 75.5739 9.35365 75.5314 10.3371C75.503 11.5059 74.7088 11.8622 73.4323 11.8622H69.9148C70.6523 9.75275 72.1558 8.85479 73.3897 8.85479ZM86.949 3.66658L85.9845 8.75502C85.5448 7.91407 84.7505 7.35819 83.5166 7.35819C80.6658 7.35819 78.6517 9.61022 78.0418 12.8457C77.4178 16.0812 78.5524 18.3332 81.4175 18.3332C82.7791 18.3332 83.8712 17.6206 84.6513 16.6228L84.4101 18.0339H85.9987L88.7361 3.66658H86.949ZM85.403 12.8457C84.8924 15.4826 83.1762 16.8366 81.8146 16.8366C80.2403 16.8366 79.3042 15.4826 79.8289 12.8457C80.3395 10.2089 81.7721 8.85479 83.3464 8.85479C84.9066 8.85479 85.9278 10.2089 85.403 12.8457ZM90.3246 18.0339L91.3458 12.6604C91.7004 10.7647 92.4946 8.86904 94.6221 8.86904C95.8277 8.86904 96.2674 9.75275 95.9695 11.3064L94.693 18.0339H96.4801L97.6148 12.0333C97.941 10.3371 98.948 8.86904 100.749 8.86904C102.281 8.86904 102.324 10.1376 102.068 11.5059L100.834 18.0339H102.622L103.955 10.9358C104.409 8.61248 103.529 7.35819 101.416 7.35819C100.125 7.35819 98.792 7.89982 97.8559 9.26813C97.6715 8.0566 96.8064 7.35819 95.2887 7.35819C93.9272 7.35819 92.7925 7.85706 91.8422 9.13986L92.1117 7.65751H90.509L88.5375 18.0339H90.3246ZM105.217 12.8457C104.565 16.2808 106.139 18.3332 108.99 18.3332C111.855 18.3332 114.223 16.2808 114.876 12.8457C115.543 9.41067 113.954 7.35819 111.103 7.35819C108.238 7.35819 105.898 9.41067 105.217 12.8457ZM107.004 12.8457C107.571 10.0093 109.259 8.85479 110.819 8.85479C112.394 8.85479 113.642 10.0093 113.089 12.8457C112.55 15.6821 110.862 16.8366 109.288 16.8366C107.728 16.8366 106.479 15.6821 107.004 12.8457ZM117.415 18.0339L118.464 12.4324C118.847 10.4084 119.982 9.05434 121.684 9.05434C122.294 9.05434 122.62 9.21112 122.96 9.49619L123.811 7.91407C123.386 7.54348 122.875 7.35819 122.081 7.35819C120.79 7.35819 119.783 8.0566 118.861 9.45343L119.202 7.65751H117.599L115.628 18.0339H117.415ZM132.265 14.8839L130.634 14.5276C129.981 16.0812 128.648 16.8366 127.442 16.8366C125.953 16.8366 124.747 15.7962 125.074 13.3018H128.648C130.775 13.3018 132.719 12.6462 132.747 10.2659C132.747 9.01158 131.711 7.35819 129.144 7.35819C126.293 7.35819 124.053 9.41067 123.372 12.8457C122.719 16.2808 124.18 18.3332 127.045 18.3332C129.286 18.3332 131.215 17.193 132.265 14.8839ZM128.875 8.85479C130.009 8.85479 131.059 9.35365 131.017 10.3371C130.974 11.5059 130.18 11.8622 128.917 11.8622H125.4C126.137 9.75275 127.641 8.85479 128.875 8.85479ZM135.342 18.0339L135.697 16.0385H133.896L133.541 18.0339H135.342ZM147.015 3.66658L146.051 8.75502C145.611 7.91407 144.817 7.35819 143.583 7.35819C140.732 7.35819 138.718 9.61022 138.108 12.8457C137.484 16.0812 138.619 18.3332 141.484 18.3332C142.845 18.3332 143.938 17.6206 144.718 16.6228L144.476 18.0339H146.065L148.802 3.66658H147.015ZM145.469 12.8457C144.959 15.4826 143.243 16.8366 141.881 16.8366C140.307 16.8366 139.37 15.4826 139.895 12.8457C140.406 10.2089 141.838 8.85479 143.413 8.85479C144.973 8.85479 145.994 10.2089 145.469 12.8457ZM148.774 12.8457C148.107 16.2808 149.682 18.3332 152.547 18.3332C155.398 18.3332 157.766 16.2808 158.419 12.8457C159.099 9.41067 157.511 7.35819 154.646 7.35819C151.781 7.35819 149.441 9.41067 148.774 12.8457ZM150.561 12.8457C151.114 10.0093 152.802 8.85479 154.362 8.85479C155.937 8.85479 157.185 10.0093 156.632 12.8457C156.093 15.6821 154.405 16.8366 152.845 16.8366C151.27 16.8366 150.022 15.6821 150.561 12.8457ZM160.957 18.0339L161.979 12.6604C162.333 10.7647 163.128 8.86904 165.255 8.86904C166.461 8.86904 166.9 9.75275 166.602 11.3064L165.326 18.0339H167.113L168.248 12.0333C168.56 10.3371 169.581 8.86904 171.382 8.86904C172.914 8.86904 172.957 10.1376 172.701 11.5059L171.467 18.0339H173.254L174.588 10.9358C175.042 8.61248 174.162 7.35819 172.035 7.35819C170.744 7.35819 169.425 7.89982 168.489 9.26813C168.304 8.0566 167.439 7.35819 165.922 7.35819C164.56 7.35819 163.425 7.85706 162.475 9.13986L162.745 7.65751H161.142L159.17 18.0339H160.957ZM182.091 16.7511C182.048 17.25 182.006 17.7489 182.289 18.0339H184.09C183.793 17.6491 183.722 16.9792 183.934 15.9244L184.814 11.3634C185.31 8.75502 184.332 7.35819 181.566 7.35819C179.58 7.35819 177.595 8.09936 176.63 10.4939L178.261 10.8645C178.857 9.51044 179.821 8.79778 181.112 8.79778C182.488 8.79778 183.395 9.39642 183.083 11.007L182.998 11.4061C182.445 11.6484 181.197 11.848 180.077 11.9478C177.736 12.1616 175.807 13.0595 175.382 15.2973C174.985 17.421 176.403 18.3332 178.318 18.3332C179.552 18.3332 180.842 17.9199 182.091 16.7511ZM182.261 15.2403C181.594 15.9387 180.176 16.8937 178.857 16.8937C177.892 16.8937 177.027 16.5373 177.268 15.226C177.538 13.8007 178.871 13.5584 180.006 13.3873C181.041 13.2306 182.232 13.0025 182.743 12.7887L182.261 15.2403ZM190.09 5.6763L190.473 3.66658H188.686L188.303 5.6763H190.09ZM187.721 18.0339L189.693 7.65751H187.906L185.934 18.0339H187.721ZM192.061 18.0339L193.111 12.3896C193.551 10.1091 194.912 8.86904 196.543 8.86904C198.089 8.86904 198.444 9.95229 198.118 11.7482L196.926 18.0339H198.713L199.919 11.6627C200.373 9.19687 200.033 7.35819 197.182 7.35819C195.749 7.35819 194.558 7.87131 193.565 9.15411L193.849 7.65751H192.232L190.274 18.0339H192.061ZM201.125 15.0407C200.898 17.136 202.203 18.3332 204.727 18.3332C206.784 18.3332 209.053 17.478 209.493 15.1833C209.862 13.2448 208.755 12.5464 207.521 12.1901L204.897 11.4346C204.302 11.2636 203.706 10.9358 203.876 10.2374C204.032 9.39642 205.082 8.85479 206.372 8.85479C207.706 8.85479 208.344 9.36791 208.273 10.5082H209.932C210.301 8.74076 209.152 7.35819 206.684 7.35819C204.571 7.35819 202.543 8.25615 202.103 10.4369C201.791 12.1473 202.883 12.7887 204.174 13.1593L206.557 13.8435C207.564 14.1285 207.848 14.5419 207.677 15.34C207.465 16.4946 206.089 16.8366 205.082 16.8366C203.38 16.8366 202.855 15.8817 202.912 14.7842L201.125 15.0407Z" fill="white" />
        <path d="M11.5389 0.943599V19.7212L0.938963 9.06893V0.943599H11.5389ZM12.4779 0H0V9.46052L12.4779 22V0ZM29.1079 0.943599V9.06987L18.5079 19.7212V0.943599H29.1079ZM30.0468 0H17.5689V22L30.0468 9.46052V0Z" fill="white" />
    </g>
    <defs>
        <clipPath id="clip0">
            <rect width="209.73" height="21.86" fill="white" />
        </clipPath>
    </defs>
</svg>
